<svg xmlns="http://www.w3.org/2000/svg" width="960" height="600" viewBox="0 0 960 600" role="img" aria-labelledby="title desc">
<title id="title">NETWORK TRAFFIC MONITOR</title><desc id="desc">APPLICATION DATA FLOW. Collect: psutil · Speedtest. Monitor: Tkinter interface. Inspect: Traffic · connections. Export: CSV · ReportLab.</desc>
<defs><pattern id="grid" width="32" height="32" patternUnits="userSpaceOnUse"><path d="M32 0H0V32" fill="none" stroke="#293530" stroke-width="1"/></pattern><marker id="arrow" markerWidth="8" markerHeight="8" refX="7" refY="4" orient="auto"><path d="M0 0L8 4L0 8" fill="none" stroke="#e4c191" stroke-width="1.5"/></marker></defs>
<rect width="960" height="600" fill="#101815"/><rect width="960" height="600" fill="url(#grid)"/>
<path d="M48 105H912" stroke="#344139"/>
<text x="48" y="58" fill="#e4c191" font-size="24" letter-spacing="2" font-family="Arial,sans-serif">NETWORK TRAFFIC MONITOR</text>
<text x="48" y="89" fill="#a8b6ad" font-size="18" font-family="Arial,sans-serif">APPLICATION DATA FLOW</text><path d="M438 225.0H513" fill="none" stroke="#e4c191" stroke-width="2" marker-end="url(#arrow)"/><path d="M717.0 300V331.0H243.0V353" fill="none" stroke="#e4c191" stroke-width="2" marker-end="url(#arrow)"/><path d="M438 437.0H513" fill="none" stroke="#e4c191" stroke-width="2" marker-end="url(#arrow)"/><rect x="48" y="150" width="390" height="150" rx="8" fill="#17211c" stroke="#425448"/><text x="70" y="186" fill="#e4c191" font-size="20" font-family="monospace">01</text><text x="70" y="240" fill="#f0f3eb" font-family="Arial,sans-serif" font-size="40">Collect</text><text x="70" y="277" fill="#a8b6ad" font-family="Arial,sans-serif" font-size="23">psutil · Speedtest</text><rect x="522" y="150" width="390" height="150" rx="8" fill="#17211c" stroke="#425448"/><text x="544" y="186" fill="#e4c191" font-size="20" font-family="monospace">02</text><text x="544" y="240" fill="#f0f3eb" font-family="Arial,sans-serif" font-size="40">Monitor</text><text x="544" y="277" fill="#a8b6ad" font-family="Arial,sans-serif" font-size="23">Tkinter interface</text><rect x="48" y="362" width="390" height="150" rx="8" fill="#17211c" stroke="#425448"/><text x="70" y="398" fill="#e4c191" font-size="20" font-family="monospace">03</text><text x="70" y="452" fill="#f0f3eb" font-family="Arial,sans-serif" font-size="40">Inspect</text><text x="70" y="489" fill="#a8b6ad" font-family="Arial,sans-serif" font-size="23">Traffic · connections</text><rect x="522" y="362" width="390" height="150" rx="8" fill="#17211c" stroke="#e4c191"/><text x="544" y="398" fill="#e4c191" font-size="20" font-family="monospace">04</text><text x="544" y="452" fill="#f0f3eb" font-family="Arial,sans-serif" font-size="40">Export</text><text x="544" y="489" fill="#a8b6ad" font-family="Arial,sans-serif" font-size="23">CSV · ReportLab</text><text x="48" y="572" fill="#9cab9f" font-size="18" font-family="Arial,sans-serif">Diagram · not a product screenshot</text></svg>